<svg width="50" height="50" viewBox="0 0 50 50" fill="none" xmlns="http://www.w3.org/2000/svg">
<g clip-path="url(#clip0_12_94)">
<path d="M48.9021 25.0525C48.8738 38.5323 37.9375 49.4511 24.4511 49.4511C18.2945 49.4511 12.6695 47.1758 8.37088 43.4201C8.18126 43.2544 8.19583 42.954 8.40222 42.8097C14.7261 38.3898 18.8623 31.0552 18.8623 22.7545C18.8623 15.7069 15.8807 9.35579 11.11 4.89371C10.9863 4.77794 11.0012 4.57655 11.1432 4.48423C15.033 1.95589 19.6865 0.503792 24.6821 0.55C38.1603 0.674451 48.9305 11.5739 48.9021 25.0525Z" fill="url(#paint0_linear_12_94)"/>
<path d="M50 8.03393V41.9661C50 42.7928 49.3298 43.4631 48.503 43.4631H24.2789C24.0108 44.5518 23.0278 45.3593 21.8563 45.3593C20.6847 45.3593 19.7018 44.5518 19.4336 43.4631H8.42026C7.30668 42.4953 6.28143 41.4285 5.35838 40.2763C4.93343 39.7459 5.30928 38.9593 5.98902 38.9593H44.1784C45.0051 38.9593 45.6754 38.289 45.6754 37.4623V6.53693H48.503C49.3298 6.53693 50 7.20719 50 8.03393Z" fill="#FD4343"/>
<path d="M47.505 40.3693H5.43312C5.02673 39.867 4.63981 39.3483 4.27354 38.8144C2.22025 35.8212 4.34061 31.7532 7.97045 31.7532H38.8888C43.6474 31.7532 47.505 35.6107 47.505 40.3693Z" fill="#FDAC89"/>
<path d="M22.8543 7.07046V39.9796C22.4776 40.104 22.1424 40.2339 21.8563 40.3693C19.0983 39.1674 16.5021 38.3762 11.1776 38.3762C8.70449 38.3762 6.36796 38.5469 4.2982 38.8502C1.58713 34.9129 0 30.1418 0 25C0 16.3794 4.46118 8.8009 11.2008 4.44691C16.5157 4.4492 19.1023 5.23982 21.8563 6.44002L21.8649 6.43593C22.3252 6.21926 22.8543 6.56168 22.8543 7.07046Z" fill="#F5DC90"/>
<path d="M18.8623 10.4291V17.4152C18.8623 17.9664 18.4155 18.4132 17.8643 18.4132H0.898221C0.898021 18.4132 0.897722 18.4132 0.897522 18.4132C1.82856 15.0769 3.44932 12.0285 5.59643 9.43114H17.8643C18.4155 9.43114 18.8623 9.87794 18.8623 10.4291Z" fill="#F4AA39"/>
<path d="M17.8643 23.4032H0.0513197C0.0947329 22.73 0.165292 22.0644 0.262098 21.4072H17.8643C18.4155 21.4072 18.8623 21.854 18.8623 22.4052C18.8623 22.9564 18.4155 23.4032 17.8643 23.4032ZM17.8643 26.0646C17.8643 25.5134 17.4175 25.0666 16.8663 25.0666H0.00012207C0.00191848 25.7386 0.0308606 26.4043 0.0858506 27.0626H16.8663C17.4175 27.0626 17.8643 26.6157 17.8643 26.0646ZM17.8643 28.7258H0.282058C0.385252 29.4007 0.51599 30.0664 0.673176 30.7219H17.8643C18.4155 30.7219 18.8623 30.2751 18.8623 29.7239C18.8623 29.1728 18.4155 28.7258 17.8643 28.7258ZM11.8763 32.3852H1.13515C1.34992 33.0639 1.59344 33.7296 1.86439 34.3812H11.8763C12.4275 34.3812 12.8743 33.9344 12.8743 33.3832C12.8743 32.832 12.4275 32.3852 11.8763 32.3852Z" fill="#F1CA50"/>
<path d="M35.7285 4.44691C40.4501 4.44691 44.6322 5.17894 47.2069 6.30449C47.3885 6.38393 47.505 6.56357 47.505 6.76178V40.3693C44.9625 39.1674 40.637 38.3762 35.7285 38.3762C30.82 38.3762 24.3988 39.1673 21.8563 40.3693V6.44002C24.3988 5.23802 30.82 4.44691 35.7285 4.44691Z" fill="#F9EECF"/>
<path d="M36.8263 10.4291C36.8263 9.87794 37.2731 9.43114 37.8243 9.43114H43.8124C44.3636 9.43114 44.8104 9.87794 44.8104 10.4291C44.8104 10.9802 44.3636 11.4271 43.8124 11.4271H37.8243C37.2731 11.4271 36.8263 10.9802 36.8263 10.4291ZM43.8124 12.9242H37.8243C37.2731 12.9242 36.8263 13.371 36.8263 13.9222C36.8263 14.4733 37.2731 14.9202 37.8243 14.9202H43.8124C44.3636 14.9202 44.8104 14.4733 44.8104 13.9222C44.8104 13.371 44.3636 12.9242 43.8124 12.9242ZM41.8164 16.4172H37.8243C37.2731 16.4172 36.8263 16.864 36.8263 17.4152C36.8263 17.9663 37.2731 18.4132 37.8243 18.4132H41.8164C42.3676 18.4132 42.8144 17.9663 42.8144 17.4152C42.8144 16.864 42.3676 16.4172 41.8164 16.4172ZM31.8363 25.0666H25.8483C25.2971 25.0666 24.8503 25.5134 24.8503 26.0646C24.8503 26.6158 25.2971 27.0626 25.8483 27.0626H31.8363C32.3875 27.0626 32.8343 26.6158 32.8343 26.0646C32.8343 25.5134 32.3875 25.0666 31.8363 25.0666ZM31.8363 21.4072H25.8483C25.2971 21.4072 24.8503 21.854 24.8503 22.4052C24.8503 22.9564 25.2971 23.4032 25.8483 23.4032H31.8363C32.3875 23.4032 32.8343 22.9564 32.8343 22.4052C32.8343 21.854 32.3875 21.4072 31.8363 21.4072ZM31.8363 28.7259H25.8483C25.2971 28.7259 24.8503 29.1728 24.8503 29.7239C24.8503 30.2751 25.2971 30.7219 25.8483 30.7219H31.8363C32.3875 30.7219 32.8343 30.2751 32.8343 29.7239C32.8343 29.1728 32.3875 28.7259 31.8363 28.7259ZM29.8403 32.3852H25.8483C25.2971 32.3852 24.8503 32.832 24.8503 33.3832C24.8503 33.9343 25.2971 34.3812 25.8483 34.3812H29.8403C30.3915 34.3812 30.8383 33.9343 30.8383 33.3832C30.8383 32.832 30.3915 32.3852 29.8403 32.3852Z" fill="#F5DC90"/>
<path d="M34.8303 17.4152C34.8303 17.9663 34.3835 18.4132 33.8323 18.4132H25.8483C25.2971 18.4132 24.8503 17.9663 24.8503 17.4152V10.4291C24.8503 9.87794 25.2971 9.43114 25.8483 9.43114H33.8323C34.3835 9.43114 34.8303 9.87794 34.8303 10.4291V17.4152ZM43.8124 21.4072H35.8283C35.2771 21.4072 34.8303 21.854 34.8303 22.4052V33.3832C34.8303 33.9343 35.2771 34.3812 35.8283 34.3812H43.8124C44.3636 34.3812 44.8104 33.9343 44.8104 33.3832V22.4052C44.8104 21.854 44.3636 21.4072 43.8124 21.4072Z" fill="#F1CA50"/>
</g>
<defs>
<linearGradient id="paint0_linear_12_94" x1="8.23755" y1="0.548929" x2="56.3194" y2="40.5314" gradientUnits="userSpaceOnUse">
<stop offset="0.229167" stop-color="#5AC8FA"/>
<stop offset="1" stop-color="#4081BF"/>
</linearGradient>
<clipPath id="clip0_12_94">
<rect width="50" height="50" fill="white"/>
</clipPath>
</defs>
</svg>
