<svg width="50" height="50" viewBox="0 0 50 50" fill="none" xmlns="http://www.w3.org/2000/svg">
<path d="M48.9022 25C48.9022 34.7821 43.1578 43.2227 34.8582 47.1321C33.2393 47.8947 31.377 46.7134 31.377 44.9239V1.54361C41.5078 4.53024 48.9022 13.9016 48.9022 25Z" fill="url(#paint0_linear_14_143)"/>
<path d="M30.8626 1.44711L42.285 3.3547C42.571 3.4024 42.7562 3.68294 42.6877 3.96458L32.9546 44.0501L23.9968 42.554L30.8626 1.44711Z" fill="#81BDFD"/>
<path d="M33.433 0.549104C33.7086 0.549004 33.9322 0.772457 33.9322 1.04811V47.5449C31.0931 48.7402 27.9812 49.4151 24.7157 49.4497C11.2874 49.5921 0.18735 38.7725 0.00242026 25.3446C-0.0107534 24.3846 0.0313624 23.437 0.125774 22.505L0.136153 22.4052C1.43186 10.1212 11.8236 0.548904 24.4511 0.548904C24.5845 0.548904 33.433 0.549104 33.433 0.549104Z" fill="#D3F1F5"/>
<path d="M20.56 28.0895V34.403C20.56 35.2297 19.8897 35.9 19.063 35.9H12.7495C11.9228 35.9 11.2525 35.2297 11.2525 34.403V28.0895C11.2525 27.2628 11.9228 26.5925 12.7495 26.5925H19.063C19.8897 26.5925 20.56 27.2627 20.56 28.0895ZM19.063 38.0478H12.7495C11.9228 38.0478 11.2525 38.7181 11.2525 39.5448V45.5863C12.2941 46.2556 13.3898 46.8478 14.5316 47.3553H19.063C19.8897 47.3553 20.56 46.685 20.56 45.8583V39.5448C20.56 38.7181 19.8897 38.0478 19.063 38.0478ZM19.063 14.4212H12.7495C11.9228 14.4212 11.2525 15.0914 11.2525 15.9182V22.2316C11.2525 23.0584 11.9228 23.7286 12.7495 23.7286H19.063C19.8897 23.7286 20.56 23.0584 20.56 22.2316V15.9182C20.56 15.0914 19.8897 14.4212 19.063 14.4212ZM30.3393 14.4212H24.0259C23.1991 14.4212 22.5288 15.0914 22.5288 15.9182V22.2316C22.5288 23.0584 23.1991 23.7286 24.0259 23.7286H30.3393C31.1661 23.7286 31.8363 23.0584 31.8363 22.2316V15.9182C31.8363 15.0914 31.1661 14.4212 30.3393 14.4212ZM30.3393 26.5925H24.0259C23.1991 26.5925 22.5288 27.2628 22.5288 28.0895V34.403C22.5288 35.2297 23.1991 35.9 24.0259 35.9H30.3393C31.1661 35.9 31.8363 35.2297 31.8363 34.403V28.0895C31.8363 27.2627 31.1661 26.5925 30.3393 26.5925ZM30.3393 38.0478H24.0259C23.1991 38.0478 22.5288 38.7181 22.5288 39.5448V45.8583C22.5288 46.685 23.1991 47.3553 24.0259 47.3553H30.3393C31.1661 47.3553 31.8363 46.685 31.8363 45.8583V39.5448C31.8363 38.7181 31.1661 38.0478 30.3393 38.0478Z" fill="#ADE8F0"/>
<path d="M4.89021 17.4152H1.19929C1.42055 16.7363 1.67075 16.0705 1.94839 15.4192H4.89021C5.4414 15.4192 5.88821 15.866 5.88821 16.4172C5.88821 16.9684 5.4414 17.4152 4.89021 17.4152ZM7.88422 19.4112H0.641604C0.488311 20.0668 0.361465 20.7325 0.262063 21.4072H7.88422C8.43541 21.4072 8.88222 20.9604 8.88222 20.4092C8.88222 19.858 8.43541 19.4112 7.88422 19.4112ZM7.88422 32.3852H1.13512C1.34989 33.0639 1.5934 33.7296 1.86436 34.3812H7.88422C8.43541 34.3812 8.88222 33.9344 8.88222 33.3832C8.88222 32.832 8.43541 32.3852 7.88422 32.3852ZM7.88422 40.3693H5.43312C5.99799 41.0674 6.60049 41.7337 7.23761 42.3653H7.88422C8.43541 42.3653 8.88222 41.9185 8.88222 41.3673C8.88222 40.8161 8.43541 40.3693 7.88422 40.3693ZM7.88422 28.3932H0.233521C0.327133 29.0678 0.448291 29.7334 0.595796 30.3892H7.88422C8.43541 30.3892 8.88222 29.9424 8.88222 29.3912C8.88222 28.84 8.43541 28.3932 7.88422 28.3932ZM17.8643 6.43712H26.8463C27.3975 6.43712 27.8443 5.99032 27.8443 5.43912C27.8443 4.88792 27.3975 4.44112 26.8463 4.44112H17.8643C17.3131 4.44112 16.8663 4.88792 16.8663 5.43912C16.8663 5.99032 17.3131 6.43712 17.8643 6.43712ZM29.8403 8.43313H17.8643C17.3131 8.43313 16.8663 8.87994 16.8663 9.43114C16.8663 9.98233 17.3131 10.4291 17.8643 10.4291H29.8403C30.3915 10.4291 30.8383 9.98233 30.8383 9.43114C30.8383 8.87994 30.3915 8.43313 29.8403 8.43313ZM15.9062 16.5798C14.5282 16.5798 13.4112 17.6969 13.4112 19.0748C13.4112 20.4528 14.5282 21.5699 15.9062 21.5699C17.2841 21.5699 18.4012 20.4528 18.4012 19.0748C18.4012 17.6969 17.2842 16.5798 15.9062 16.5798ZM15.9062 40.2066C14.5282 40.2066 13.4112 41.3237 13.4112 42.7016C13.4112 44.0795 14.5282 45.1966 15.9062 45.1966C17.2841 45.1966 18.4012 44.0795 18.4012 42.7016C18.4012 41.3237 17.2842 40.2066 15.9062 40.2066ZM27.1826 28.7512C25.8047 28.7512 24.6876 29.8683 24.6876 31.2462C24.6876 32.6242 25.8047 33.7412 27.1826 33.7412C28.5606 33.7412 29.6776 32.6242 29.6776 31.2462C29.6776 29.8683 28.5606 28.7512 27.1826 28.7512Z" fill="#81BDFD"/>
<path d="M26.0479 37.475C26.0479 30.8609 31.4098 25.499 38.024 25.499C44.6381 25.499 50 30.8609 50 37.475C50 44.0892 44.6381 49.4511 38.024 49.4511C31.4098 49.4511 26.0479 44.0892 26.0479 37.475Z" fill="#FD4343"/>
<path d="M48.3088 43.6144C46.2174 47.1104 42.394 49.4511 38.024 49.4511C31.4098 49.4511 26.0479 44.0892 26.0479 37.475C26.0479 33.105 28.3886 29.2816 31.8846 27.1902C30.8107 28.9855 30.1934 31.0854 30.1934 33.3295C30.1934 39.9437 35.5553 45.3056 42.1695 45.3056C44.4136 45.3056 46.5136 44.6883 48.3088 43.6144Z" fill="#E43950"/>
<path d="M36.7923 34.3124C36.7888 34.3032 36.7852 34.2941 36.7815 34.285C36.5956 33.8332 36.16 33.5414 35.6716 33.5414H35.6703C35.1813 33.5419 34.7457 33.8346 34.5606 34.2873C34.5575 34.2948 34.5545 34.3023 34.5517 34.31L31.201 43.1078C31.0048 43.6229 31.2634 44.1994 31.7785 44.3956C32.2936 44.5919 32.8701 44.3332 33.0663 43.8182L33.656 42.2699H37.6619L38.2451 43.8154C38.3959 44.2151 38.7757 44.4613 39.179 44.4613C39.296 44.4613 39.4152 44.4405 39.5311 44.3967C40.0468 44.2021 40.3071 43.6262 40.1125 43.1106L36.7923 34.3124ZM34.4162 40.2737L35.6682 36.9865L36.9087 40.2737H34.4162ZM44.9126 33.9423C44.9126 34.4935 44.4658 34.9403 43.9146 34.9403H42.4571V36.4568C42.4571 37.008 42.0103 37.4548 41.4591 37.4548C40.9079 37.4548 40.4611 37.008 40.4611 36.4568V34.9403H38.9446C38.3934 34.9403 37.9466 34.4935 37.9466 33.9423C37.9466 33.3911 38.3934 32.9443 38.9446 32.9443H40.4611V31.4868C40.4611 30.9356 40.9079 30.4888 41.4591 30.4888C42.0103 30.4888 42.4571 30.9356 42.4571 31.4868V32.9443H43.9146C44.4658 32.9443 44.9126 33.3911 44.9126 33.9423Z" fill="#FFF5F5"/>
<defs>
<linearGradient id="paint0_linear_14_143" x1="31.377" y1="1.54361" x2="61.955" y2="13.238" gradientUnits="userSpaceOnUse">
<stop offset="0.229167" stop-color="#5AC8FA"/>
<stop offset="1" stop-color="#4081BF"/>
</linearGradient>
</defs>
</svg>
