<svg width="50" height="50" viewBox="0 0 50 50" fill="none" xmlns="http://www.w3.org/2000/svg">
<path d="M5.02434 36.9629L17.559 47.9504C20.2049 48.9582 23.0747 49.5117 26.0742 49.5117C32.1293 49.5117 37.6583 47.2614 41.8728 43.5524L48.9639 32.5684C49.6368 30.3593 50 28.0152 50 25.586C50 12.3722 39.2879 1.66017 26.0742 1.66017C12.8601 1.66017 2.14844 12.3722 2.14844 25.586C2.14844 29.7047 3.18947 33.5797 5.02205 36.9637L5.02434 36.9629Z" fill="url(#paint0_linear_10_49)"/>
<path d="M37.3722 41.9083L26.4404 1.11124C26.3394 0.733199 25.951 0.508895 25.573 0.610366L11.0455 4.50288V44.2005C12.9891 45.7718 15.1833 47.0451 17.5594 47.9508L36.871 42.7761C37.249 42.6746 37.4733 42.2863 37.3722 41.9083Z" fill="#91D1F9"/>
<path d="M11.0454 4.50288L0.525268 7.32195C0.147231 7.42304 -0.077073 7.81137 0.0243979 8.18941L9.24071 42.5854C9.81444 43.1538 10.4168 43.6924 11.0454 44.2005V4.50288Z" fill="#4AC4F4"/>
<path d="M31.6639 3.22229H13.2618C12.1464 3.22229 11.0767 3.66556 10.2879 4.45406L6.25612 8.48619C5.46724 9.27507 5.02435 10.3447 5.02435 11.4601V36.9629C7.31927 41.201 10.8563 44.6682 15.1482 46.8754H31.6639C32.0549 46.8754 32.3723 46.5584 32.3723 46.167V3.93068C32.3723 3.53967 32.0553 3.22229 31.6639 3.22229Z" fill="#D0E8FE"/>
<path d="M10.6529 4.13095C10.5263 4.23128 10.4038 4.33847 10.2879 4.45406L6.25612 8.48619C5.46724 9.27507 5.02435 10.3447 5.02435 11.4601V36.9629C6.45639 39.6076 8.37213 41.9518 10.6529 43.8771V4.13095Z" fill="#A9D8FC"/>
<path d="M11.52 3.60147C11.4422 3.64572 10.8612 3.88109 10.2879 4.45406C9.66188 5.08005 7.19644 7.54587 6.25612 8.48619C6.25574 8.48619 6.25574 8.48657 6.25574 8.48657C5.90517 8.83715 5.61182 9.25943 5.40315 9.71796C5.15634 10.26 5.02435 10.8532 5.02435 11.4601C5.02435 11.4601 5.44702 9.71796 8.46139 9.71796H10.8116C11.2026 9.71796 11.52 9.40096 11.52 9.00957V6.65972C11.52 3.64954 13.2618 3.22229 13.2618 3.22229C12.6549 3.22229 12.0617 3.35466 11.52 3.60147Z" fill="#A9D8FC"/>
<path d="M18.423 25.185H15.7936C15.3091 25.185 14.9162 24.7921 14.9162 24.3076C14.9162 23.8232 15.3091 23.4303 15.7936 23.4303H18.423C18.9075 23.4303 19.3004 23.8232 19.3004 24.3076C19.3004 24.7921 18.9075 25.185 18.423 25.185Z" fill="#91D1F9"/>
<path d="M17.139 28.6957H15.7936C15.3091 28.6957 14.9162 28.3028 14.9162 27.8179C14.9162 27.3335 15.3091 26.9405 15.7936 26.9405H17.139C17.6235 26.9405 18.0164 27.3335 18.0164 27.8179C18.0164 28.3028 17.6235 28.6957 17.139 28.6957Z" fill="#5766CE"/>
<path d="M12.4504 25.185H11.8236C11.3388 25.185 10.9459 24.7921 10.9459 24.3076C10.9459 23.8232 11.3388 23.4303 11.8236 23.4303H12.4504C12.9349 23.4303 13.3278 23.8232 13.3278 24.3076C13.3278 24.7921 12.9349 25.185 12.4504 25.185Z" fill="#91D1F9"/>
<path d="M25.5729 16.5257H15.7936C15.3091 16.5257 14.9162 16.1331 14.9162 15.6483C14.9162 15.1638 15.3091 14.7709 15.7936 14.7709H25.5729C26.0578 14.7709 26.4503 15.1638 26.4503 15.6483C26.4503 16.1331 26.0578 16.5257 25.5729 16.5257Z" fill="#91D1F9"/>
<path d="M23.4497 20.0363H15.7936C15.3091 20.0363 14.9162 19.6434 14.9162 19.1589C14.9162 18.6745 15.3091 18.2816 15.7936 18.2816H23.4497C23.9341 18.2816 24.3271 18.6745 24.3271 19.1589C24.3271 19.6434 23.9341 20.0363 23.4497 20.0363Z" fill="#5766CE"/>
<path d="M12.4504 16.5257H11.8236C11.3388 16.5257 10.9459 16.1331 10.9459 15.6483C10.9459 15.1638 11.3388 14.7709 11.8236 14.7709H12.4504C12.9349 14.7709 13.3278 15.1638 13.3278 15.6483C13.3278 16.1331 12.9349 16.5257 12.4504 16.5257Z" fill="#91D1F9"/>
<path d="M25.5729 33.8444H15.7936C15.3091 33.8444 14.9162 33.4515 14.9162 32.967C14.9162 32.4825 15.3091 32.0896 15.7936 32.0896H25.5729C26.0578 32.0896 26.4503 32.4825 26.4503 32.967C26.4503 33.4515 26.0578 33.8444 25.5729 33.8444Z" fill="#91D1F9"/>
<path d="M12.4504 33.8444H11.8236C11.3388 33.8444 10.9459 33.4515 10.9459 32.967C10.9459 32.4825 11.3388 32.0896 11.8236 32.0896H12.4504C12.9349 32.0896 13.3278 32.4825 13.3278 32.967C13.3278 33.4515 12.9349 33.8444 12.4504 33.8444Z" fill="#91D1F9"/>
<path d="M23.2303 22.9138C23.2303 22.9138 21.6568 19.6961 24.0238 17.4751C25.1472 16.4211 25.9765 15.6345 26.5388 15.0986L25.8953 14.9212C25.8953 14.9212 24.8302 15.9561 22.4632 18.177C20.0962 20.398 21.6697 23.6157 21.6697 23.6157C22.4609 25.7164 23.2254 27.1729 24.2466 27.0027C24.8276 26.9058 25.0767 26.4992 25.1827 26.1948C24.4568 25.816 23.8518 24.5636 23.2303 22.9138Z" fill="#EAB39B"/>
<path d="M30.167 16.098L25.8953 14.9212C25.8953 14.9212 24.8302 15.9565 22.4632 18.1774C20.0962 20.3983 21.6697 23.6157 21.6697 23.6157C22.4609 25.7164 23.2254 27.1729 24.2466 27.0027C25.2037 26.8433 25.2601 25.8434 25.2601 25.8434C25.288 25.2934 25.2277 24.6296 25.1228 23.9441L26.9325 20.5555C26.9325 20.5555 29.5074 22.1676 31.3244 22.4632C33.1413 22.7593 33.0848 21.1964 33.0848 21.1964C34.003 17.622 30.167 16.098 30.167 16.098Z" fill="#FFCDBE"/>
<path d="M32.4577 20.5692C30.6408 20.2732 28.0655 18.6615 28.0655 18.6615L27.024 20.612C27.4978 20.8992 29.71 22.2004 31.324 22.4632C33.1409 22.7593 33.0845 21.1964 33.0845 21.1964C33.139 20.9839 33.1764 20.779 33.1993 20.5811C32.9952 20.6158 32.7511 20.6169 32.4577 20.5692Z" fill="#FCB19F"/>
<path d="M39.6205 23.0488C39.4939 22.8729 39.4031 22.6738 39.3505 22.4632C38.7146 19.9207 37.8372 16.9373 36.52 14.5683C36.2587 14.0984 35.889 13.6978 35.445 13.3946C34.5817 12.8048 33.0211 11.8156 32.1815 11.755C29.8027 11.5822 26.7585 10.3554 25.167 11.5009C22.8469 13.171 18.4242 18.4444 19.35 19.7308C19.5213 19.9688 19.7921 20.1107 20.2079 20.0333L21.2314 19.6289C22.7718 18.816 24.8447 16.6706 25.6256 15.8299C25.83 15.6097 26.1367 15.5174 26.4282 15.5895C27.164 15.7715 28.2478 16.1346 28.9909 16.3094C30.8971 16.7572 32.3593 18.1339 32.6145 20.0909C32.6732 20.541 32.7312 20.9415 32.6843 21.2254C32.6843 21.2254 32.5859 22.3446 31.7306 22.2054L28.8742 21.3272C28.6048 21.1597 24.7844 17.1051 22.2381 19.3184C22.1572 19.3886 22.0447 19.45 22.0504 19.4458C21.7697 19.6651 21.5362 20.0146 21.5721 20.3613C21.6003 20.6905 21.8742 20.8271 23.8853 22.7364C24.7654 23.568 25.6591 24.448 26.0616 25.0076C26.733 25.9403 30.2856 27.4322 31.913 28.0804C32.4501 28.294 32.9147 28.656 33.2523 29.1252L35.7406 32.592C38.4346 31.1073 40.5563 28.8795 41.9273 26.2604L39.6205 23.0488Z" fill="#FFDECF"/>
<path d="M39.6206 23.0488C39.4939 22.8729 39.4031 22.6738 39.3505 22.4632C39.175 21.7621 38.9805 21.027 38.7642 20.2812C38.7981 20.5551 38.818 20.834 38.818 21.1174C38.818 24.8371 35.8024 27.8526 32.0827 27.8526C31.7852 27.8526 31.493 27.8316 31.2061 27.7939C31.4663 27.9015 31.7055 27.9976 31.913 28.0804C32.4501 28.294 32.9147 28.6564 33.2523 29.1256L35.7403 32.5924C38.4346 31.1077 40.5563 28.8799 41.9269 26.2608L39.6206 23.0488Z" fill="#FFCDBE"/>
<path d="M20.208 20.0333L21.2315 19.6289C22.6402 18.8854 24.5415 16.9972 25.6256 15.8299L25.626 15.8295C25.9754 15.4545 26.44 15.5899 26.4313 15.5903C26.7723 15.6746 27.2373 15.8127 27.5791 15.9142C27.5806 15.9145 27.5826 15.9153 27.5841 15.9157C28.08 16.0629 28.5862 16.214 28.9913 16.3094C30.9158 16.7614 32.3269 18.1366 32.6038 20.0207L32.6054 20.0195C32.6592 20.4369 32.7347 20.9202 32.6843 21.2254C32.6344 21.5824 32.5066 21.973 32.1892 22.1417V22.142C32.1892 22.142 34.4704 22.1558 34.5039 19.9158C34.5661 19.54 34.4444 18.9846 34.3945 18.4059C34.2388 16.6107 32.9243 15.1283 31.1714 14.7118L26.1532 13.5201C25.7809 13.4281 25.3883 13.5449 25.127 13.826C21.1029 18.1583 19.3161 18.7462 19.3096 18.7508L19.3092 18.7515C19.3085 18.7538 19.3081 18.7561 19.3073 18.7584C19.2196 19.0701 19.1616 19.4691 19.35 19.7311C19.4626 19.8872 19.6182 20.0012 19.8292 20.0401C19.9394 20.06 20.0649 20.06 20.208 20.0333Z" fill="#F9D6BF"/>
<path d="M36.1305 5.4905L35.6891 5.12315C34.9456 4.50402 33.8314 4.60549 33.2122 5.3486L32.6915 5.97421L35.8352 8.59261L36.3559 7.96739C36.9751 7.22428 36.8736 6.10963 36.1305 5.4905Z" fill="#EB5793"/>
<path d="M34.8526 6.62652C35.2634 6.13366 35.8474 5.86701 36.4452 5.8365C36.3575 5.71061 36.2537 5.59312 36.1305 5.4905L35.6891 5.12315C34.9456 4.50402 33.8314 4.60549 33.2122 5.3486L32.6915 5.97421L34.2884 7.30401L34.8526 6.62652Z" fill="#E7387F"/>
<path d="M19.1025 27.1225C18.9247 26.8208 18.6936 26.5419 18.4071 26.3031C18.1206 26.0647 17.8047 25.8877 17.4755 25.7675L18.4231 23.0877L19.3245 22.0051L22.4682 24.6239L21.5668 25.7061L19.1025 27.1225Z" fill="#FFF2BD"/>
<path d="M20.3251 24.0005C19.5942 24.0669 18.8709 25.1705 18.3338 26.2451C18.0672 26.0361 17.7769 25.8778 17.4755 25.7675L18.4231 23.0877L19.3249 22.0051L20.895 23.3131C20.9255 23.6759 20.7905 23.9582 20.3251 24.0005Z" fill="#F9DF5F"/>
<path d="M18.4463 26.2562C18.7385 26.4996 18.9735 26.7845 19.1528 27.0935L17.2096 28.2104C16.9521 28.3585 16.6489 28.1055 16.7477 27.8259L17.495 25.7126C17.831 25.8331 18.1541 26.0128 18.4463 26.2562Z" fill="#EF7D5E"/>
<path d="M17.2096 28.2104C16.9525 28.3585 16.6488 28.1055 16.7476 27.8259L17.4949 25.7126C17.7993 25.8217 18.0923 25.9796 18.362 26.189C18.0027 26.8997 17.7238 27.6058 17.5773 27.9991L17.2096 28.2104Z" fill="#E06E53"/>
<path d="M21.4329 24.2687C21.178 24.0563 20.8507 23.9891 20.5513 24.0574C20.4716 24.0753 20.388 24.0528 20.3251 24.0006L32.8693 8.95731L34.441 10.2665L21.5668 25.7061C21.9269 25.2735 21.867 24.63 21.4329 24.2687Z" fill="#F6D100"/>
<path d="M27.5043 18.5852C27.3739 18.6321 27.2335 18.6592 27.0866 18.6592C26.4866 18.6592 25.9685 18.2266 25.8686 17.6327C25.8571 17.5652 25.8205 17.5087 25.7698 17.4709L20.3251 24.0002C20.388 24.0528 20.4716 24.0753 20.5513 24.0574C20.8507 23.9891 21.178 24.0563 21.4329 24.2683C21.867 24.63 21.9269 25.2735 21.5668 25.7061L27.5043 18.5852Z" fill="#F2BA00"/>
<path d="M20.3251 24.0006C20.2625 23.9479 20.2248 23.8701 20.2282 23.7885C20.2412 23.4814 20.1161 23.1716 19.8612 22.9595C19.4271 22.5979 18.7832 22.6555 18.4231 23.0877L31.2973 7.64772L32.8693 8.95731L20.3251 24.0006Z" fill="#F2BA00"/>
<path d="M25.6065 17.421C24.8741 17.4561 24.2493 16.8331 24.3218 16.0648C24.3237 16.0442 24.3271 16.024 24.3301 16.0034L18.4231 23.0877C18.7832 22.6555 19.4271 22.5979 19.8612 22.9595C20.1161 23.1716 20.2412 23.4814 20.2282 23.7885C20.2248 23.8701 20.2625 23.9479 20.3251 24.0006L25.7698 17.4709C25.7244 17.437 25.668 17.4179 25.6065 17.421Z" fill="#EEA200"/>
<path d="M34.1358 10.3665L31.2728 7.9815C30.9795 7.73736 30.9394 7.29753 31.1836 7.00418C31.4281 6.71083 31.8679 6.67077 32.1613 6.91529L35.0242 9.29986C35.3176 9.54438 35.3576 9.98422 35.1131 10.2772C34.869 10.5705 34.4291 10.6106 34.1358 10.3665Z" fill="#91D1F9"/>
<path d="M32.5966 8.18101C32.8041 7.93191 33.1459 7.85714 33.4316 7.97349L32.1613 6.91529C31.8679 6.67077 31.4281 6.71083 31.1836 7.00418C30.9394 7.29753 30.9795 7.73736 31.2728 7.9815L32.5431 9.0397C32.3772 8.77954 32.389 8.43011 32.5966 8.18101Z" fill="#4AC4F4"/>
<path d="M34.9056 9.44253L32.0423 7.05758C31.749 6.81344 31.7089 6.37361 31.9534 6.08026C32.1976 5.78691 32.6374 5.74685 32.9308 5.99137L35.7941 8.37594C36.0874 8.62046 36.1275 9.0603 35.8829 9.35327C35.6384 9.64662 35.1986 9.68667 34.9056 9.44253Z" fill="#A9D8FC"/>
<path d="M33.5136 7.37993C33.72 7.13236 34.0588 7.05644 34.3441 7.16821L32.9308 5.991C32.6374 5.74686 32.1976 5.78691 31.9534 6.08026C31.7089 6.37323 31.7493 6.81345 32.0423 7.05759L33.4557 8.2348C33.2939 7.97426 33.3076 7.62789 33.5136 7.37993Z" fill="#91D1F9"/>
<path d="M30.9131 21.9543L28.8742 21.3276C28.6049 21.1597 24.7844 17.1055 22.2381 19.3184C22.1572 19.3886 22.0447 19.45 22.0504 19.4458C21.7697 19.6651 21.5362 20.0146 21.5721 20.3617C21.6003 20.6905 21.8742 20.8271 23.8853 22.7364C24.7654 23.568 25.6591 24.448 26.062 25.0076C26.4579 25.5577 27.8568 26.3027 29.2717 26.9543L30.9131 21.9543Z" fill="#FFDECF"/>
<path d="M24.0223 19.7979C23.3772 19.204 22.3633 19.2455 21.7689 19.8906L21.6026 20.071C21.5545 20.237 21.5675 20.3518 21.6125 20.517C21.7651 20.8427 22.7623 21.624 24.6135 23.4352L25.0744 22.9347C25.6683 22.2897 25.6267 21.2753 24.9817 20.6814L24.0223 19.7979Z" fill="#FCEAE3"/>
<path d="M42.9989 24.6292L33.1913 31.9981L41.8728 43.5524C45.1645 40.6555 47.6536 36.869 48.9639 32.568L42.9989 24.6292Z" fill="#3D4EC6"/>
<path d="M40.9401 33.7311C39.5756 31.9149 39.9414 29.3362 41.7579 27.9713L44.1562 26.1696L42.9989 24.6292L33.1913 31.9981L41.8728 43.5524C43.1877 42.3954 44.3741 41.0957 45.409 39.6786L40.9401 33.7311Z" fill="#3342AE"/>
<path d="M42.6414 24.3122L32.9864 31.567C32.6817 31.7959 32.6202 32.2281 32.8491 32.5329L34.3246 34.4967C34.5535 34.8011 34.9861 34.8629 35.2905 34.6336L44.9459 27.3792C45.2503 27.1503 45.3117 26.7181 45.0829 26.4133L43.6073 24.4495C43.3784 24.1447 42.9462 24.0833 42.6414 24.3122Z" fill="#5766CE"/>
<path d="M37.6991 30.4249C37.1555 29.7016 37.1761 28.73 37.6854 28.0361L32.9864 31.567C32.6817 31.7959 32.6202 32.2281 32.8491 32.5329L34.3246 34.4967C34.5535 34.8011 34.9861 34.8629 35.2909 34.6336L39.9898 31.1031C39.1815 31.3992 38.2427 31.1485 37.6991 30.4249Z" fill="#3D4EC6"/>
<path d="M43.2209 26.2775C42.8856 25.8316 42.2527 25.742 41.8071 26.0769C41.3612 26.4118 41.2716 27.0447 41.6065 27.4906C41.9414 27.9362 42.5743 28.0262 43.0202 27.6913C43.4658 27.3563 43.5558 26.7235 43.2209 26.2775Z" fill="#8C96DD"/>
<path d="M8.31682 7.25786C8.31682 6.87257 8.40417 6.50713 8.56096 6.18135C7.6996 7.04271 6.75928 7.98303 6.25612 8.48619L6.25574 8.48657C5.90555 8.83714 5.61182 9.25943 5.40315 9.71757V9.71795C5.15634 10.26 5.02435 10.8528 5.02435 11.4601C5.02435 11.4601 5.44702 9.71795 8.4614 9.71795H10.4195C9.22815 9.5318 8.31682 8.50145 8.31682 7.25786Z" fill="#91D1F9"/>
<defs>
<linearGradient id="paint0_linear_10_49" x1="2.14844" y1="1.66017" x2="50" y2="49.5117" gradientUnits="userSpaceOnUse">
<stop offset="0.229167" stop-color="#5AC8FA"/>
<stop offset="1" stop-color="#4081BF"/>
</linearGradient>
</defs>
</svg>
