<svg width="50" height="50" viewBox="0 0 50 50" fill="none" xmlns="http://www.w3.org/2000/svg">
<path d="M24.9999 50C38.4295 50 49.3163 39.1132 49.3163 25.6836C49.3163 12.254 38.4295 1.36719 24.9999 1.36719C11.5703 1.36719 0.683472 12.254 0.683472 25.6836C0.683472 39.1132 11.5703 50 24.9999 50Z" fill="url(#paint0_linear_12_105)"/>
<path d="M21.8468 0.0104455C15.3235 0.0354455 9.86066 5.36777 9.86066 12.0815V16.8427H34.0062C34.0062 12.8019 34.0062 13.8861 34.0062 9.8124C34.0062 5.13779 31.1302 4.06103 31.1302 4.06103C27.5537 -0.34893 21.8515 0.0104455 21.8515 0.0104455" fill="#656582"/>
<path d="M23.4776 0.0825222C16.6866 -0.690329 10.7993 4.05928 9.96141 10.5139C9.82625 11.4752 9.86434 12.1099 9.86053 16.3544H12.7365V12.0815C12.7366 5.87354 17.4265 0.746487 23.4776 0.0825222Z" fill="#585877"/>
<path d="M12.8343 15.2196C11.32 14.68 9.67615 15.6836 9.67615 17.1477C9.67615 18.6113 11.3198 19.6154 12.8343 19.0757V15.2196Z" fill="#F4C48B"/>
<path d="M31.0325 15.2196C32.5468 14.68 34.1906 15.6836 34.1906 17.1477C34.1906 18.6113 32.547 19.6154 31.0325 19.0757V15.2196Z" fill="#EAB5AC"/>
<path d="M9.91953 16.2205C8.9833 17.9018 10.8512 19.7824 12.8343 19.0758V17.2214C11.7128 17.621 10.4533 17.179 9.91953 16.2205Z" fill="#EAB883"/>
<path d="M31.0325 17.2213V19.0757C33.016 19.7826 34.8838 17.9023 33.9473 16.2204C33.5684 16.9009 32.1548 17.6213 31.0325 17.2213Z" fill="#DB9E95"/>
<path d="M22.4429 35.9987L23.0817 34.5508L26.2524 29.5708V26.7275C23.5585 28.1641 20.3884 28.1129 17.8962 26.8709L17.8989 29.5707L21.0696 34.5507L21.7085 35.9986C21.8491 36.3179 22.302 36.3179 22.4429 35.9987Z" fill="#F4C48B"/>
<path d="M20.4113 28.699V27.9692C19.4501 27.8092 18.593 27.5112 17.8961 27.1639L17.898 28.7825L17.8989 29.5707L21.0696 34.5507L21.7083 35.9986C21.8491 36.3178 22.302 36.3178 22.4428 35.9986L23.0817 34.5507L23.3662 34.1037L20.8872 30.3009C20.5767 29.8244 20.4113 29.2679 20.4113 28.699Z" fill="#EAB883"/>
<path d="M30.7153 11.3993C30.9498 11.422 31.1302 11.6165 31.1302 11.8521C31.1302 19.0725 31.1606 19.2977 31.0534 20.0949C30.774 22.2489 29.7353 24.2485 28.0879 25.7346C22.3448 30.888 13.136 27.0796 12.7495 19.3707C12.7269 18.9189 12.7365 14.9076 12.7365 14.9178C12.7365 13.1145 14.3368 11.7388 16.1216 11.9964C18.9325 12.4021 23.0354 12.2445 26.6155 9.18428C26.9833 8.86982 27.5416 8.97139 27.7765 9.39453C28.2202 10.1935 29.1023 11.2437 30.7153 11.3993Z" fill="#F7CF9C"/>
<path d="M15.5838 21.3484C15.1458 19.7558 15.2518 19.3744 15.2518 11.999C13.8484 12.2101 12.7365 13.415 12.7365 14.9178C12.7396 19.0301 12.6676 19.6183 12.9589 20.9202C14.0006 25.5605 18.4255 28.662 23.1909 28.0104C19.5507 27.5132 16.5601 24.8855 15.5838 21.3484Z" fill="#F4C48B"/>
<path d="M37.5931 36.0487C37.2155 34.6282 36.3138 33.6605 35.0409 33.1256C34.8106 33.029 34.2865 32.8845 34.2968 32.8875C34.2683 32.8774 33.7183 32.6837 28.6491 30.898L26.2523 29.5707L23.7817 32.5636C22.8956 33.637 21.2513 33.6383 20.3635 32.5662L17.8827 29.5706C17.8827 29.5736 17.8827 29.5766 17.8826 29.5795L15.4335 30.9238L14.1635 31.3605H14.1606L14.1611 31.3614C9.21113 33.1154 9.26338 33.0655 9.28545 33.0557C8.79521 33.2388 8.35146 33.4968 7.99336 33.7869C6.85332 34.6934 6.62373 35.7093 6.44707 36.5711C6.29561 37.2706 6.06758 38.4214 5.66992 40.4358C5.67139 40.4379 5.67295 40.4397 5.67451 40.4417V40.4418C8.51221 44.1517 12.4538 47.1154 17.2195 48.7201L17.2237 48.73C17.4065 48.7916 17.5902 48.8514 17.7749 48.9088V48.9089C18.4029 49.104 19.0358 49.2707 19.6711 49.4125L19.671 49.4131C21.2645 49.771 22.9247 49.9629 24.4765 49.9937V49.9932C25.0678 50.0059 25.6635 49.9988 26.266 49.9678L26.2665 49.9668C30.88 49.7313 35.4674 48.1836 39.4332 45.2538C37.5412 35.7504 37.6337 36.199 37.5931 36.0487Z" fill="#626060"/>
<path d="M7.47913 42.5426C8.05051 39.6026 8.78958 35.7902 8.89543 35.3015C9.10413 34.2837 9.3884 33.5016 10.1544 32.7686C9.251 33.0798 9.27288 33.0612 9.28557 33.0556C8.06252 33.5124 7.0677 34.4278 6.64133 35.7615C6.48469 36.2456 5.90432 39.249 5.67004 40.4356C5.67151 40.4377 5.67317 40.4394 5.67463 40.4415V40.4416C6.23372 41.1727 6.83645 41.8742 7.47913 42.5426Z" fill="#626060"/>
<path d="M12.0098 40.9939C12.0098 40.5771 11.672 40.2393 11.2553 40.2393C10.8386 40.2393 10.5007 40.577 10.5007 40.9939V45.2049C10.9882 45.5674 11.4916 45.913 12.0098 46.2406V40.9939Z" fill="#626060"/>
<path d="M33.3661 40.9939C33.3661 40.5771 33.0283 40.2393 32.6115 40.2393C32.1948 40.2393 31.8569 40.577 31.8569 40.9939V49.0187C31.8625 49.0171 31.868 49.0153 31.8736 49.0137C32.3746 48.8664 32.8721 48.7019 33.3655 48.5212C33.3657 48.5212 33.3658 48.5211 33.366 48.521L33.3661 40.9939Z" fill="#626060"/>
<path d="M44.1066 3.60401C39.1834 0.773928 32.728 2.52959 29.9146 7.4625C27.4201 11.8363 28.454 17.2679 32.13 20.4488C32.3241 20.6169 32.4263 20.8678 32.4108 21.1241L32.2471 23.8532C32.2379 24.006 32.407 24.1036 32.5347 24.0193L34.9601 22.4179C35.0881 22.3334 35.2487 22.3132 35.3928 22.3656C40.0381 24.0566 45.3665 22.2248 47.9238 17.7954C50.794 12.8242 49.0854 6.46602 44.1066 3.60401Z" fill="#626060"/>
<path d="M34.3897 15.6964C31.8122 11.2321 32.928 5.64971 36.7879 2.48486C33.9813 3.08506 31.4239 4.81631 29.9147 7.4625C27.4201 11.8363 28.4541 17.2679 32.13 20.4488C32.3241 20.6169 32.4263 20.8678 32.4109 21.1241L32.2471 23.8532C32.2379 24.006 32.4071 24.1036 32.5347 24.0193L34.9602 22.4179C35.0881 22.3334 35.2488 22.3132 35.3928 22.3656C38.8449 23.6223 42.674 22.9329 45.4629 20.6783C41.204 21.5509 36.6827 19.6682 34.3897 15.6964Z" fill="#626060"/>
<path d="M38.9332 17.5079C38.529 17.5079 38.2008 17.1809 38.2008 16.7766C38.2008 16.432 38.4408 16.1302 38.7897 16.0578C39.2215 15.9711 39.6656 16.2946 39.6656 16.7766C39.6656 17.1718 39.3448 17.5079 38.9332 17.5079Z" fill="white"/>
<path d="M38.9332 15.2049C38.5287 15.2049 38.2008 14.8771 38.2008 14.4725V13.8554C38.2008 12.7775 38.7957 11.7753 39.7534 11.2398C41.2639 10.3953 40.6527 8.12422 38.9743 8.08476C38.0049 8.06631 37.2491 8.83916 37.2491 9.76836C37.2491 10.1729 36.9212 10.5008 36.5167 10.5008C36.1122 10.5008 35.7843 10.1729 35.7843 9.76836C35.7843 7.99141 37.2467 6.57744 39.0087 6.62031C42.1999 6.69531 43.2602 10.9574 40.4683 12.5184C39.9732 12.7952 39.6657 13.3075 39.6657 13.8554V14.4725C39.6657 14.8771 39.3377 15.2049 38.9332 15.2049Z" fill="white"/>
<defs>
<linearGradient id="paint0_linear_12_105" x1="0.683472" y1="1.36719" x2="49.3163" y2="50" gradientUnits="userSpaceOnUse">
<stop offset="0.229167" stop-color="#5AC8FA"/>
<stop offset="1" stop-color="#4081BF"/>
</linearGradient>
</defs>
</svg>
