<svg width="50" height="50" viewBox="0 0 50 50" fill="none" xmlns="http://www.w3.org/2000/svg">
<g clip-path="url(#clip0_10_13)">
<path d="M44.7983 39.5112C47.403 35.6808 48.926 31.0554 48.926 26.074C48.926 12.8601 38.214 2.14806 25 2.14806C11.786 2.14806 1.07404 12.8601 1.07404 26.074C1.07404 31.0555 2.59698 35.6809 5.20177 39.5112H44.7983Z" fill="url(#paint0_linear_10_13)"/>
<path d="M16.6364 5.59854C16.6364 7.36251 15.2064 8.79249 13.4424 8.79249H44.7982V5.59854H16.6364Z" fill="#BECAF5"/>
<path d="M5.20172 5.59854V8.79249H13.6423C15.4063 8.79249 16.8363 7.36251 16.8363 5.59854H5.20172Z" fill="#3C58A0"/>
<path d="M14.4653 8.59248L14.5464 8.63975C14.1719 9.20987 12.8747 11.4525 14.591 12.8692C14.5063 13.2178 14.2522 14.4599 14.5268 15.8794C14.8188 17.3884 15.7892 19.3721 18.747 20.2956L19.8598 26.8389C19.3406 27.2315 16.4169 29.6281 18.2454 32.5161C18.0605 32.8458 17.4993 34.0594 18.6724 34.9272V36.2761C18.495 36.4084 18.0257 36.8111 17.8923 37.4543C17.7912 37.9417 17.9056 38.4522 18.2322 38.9733C17.9397 39.2922 16.9524 40.4569 16.412 42.194C15.917 43.7855 15.7442 46.1249 17.3424 48.7478C19.7466 49.5596 22.3218 50 25 50C33.2326 50 40.4934 45.8416 44.7983 39.5112V8.59248H14.4653Z" fill="#DEEEFF"/>
<path d="M5.20172 8.59249V39.5112C8.14772 43.8435 12.4783 47.1579 17.5571 48.8191C14.0799 43.341 18.4177 38.99 18.4177 38.99C17.2909 37.3244 18.8187 36.352 18.8187 36.352V34.8519C17.4662 33.9146 18.4177 32.5128 18.4177 32.5128C16.3713 29.4155 20.0192 26.9032 20.0192 26.9032L18.8762 20.1818C13.1542 18.458 14.7565 12.8139 14.7565 12.8139C12.7515 11.2661 14.7565 8.59239 14.7565 8.59239H5.20172V8.59249Z" fill="#D3DCFB"/>
<path d="M41.3101 0H16.0713C16.0713 0 15.1332 0.979395 16.0713 1.91748L16.1993 3.78086C16.1993 3.78086 15.4014 4.98789 16.6364 5.78457H44.7982V3.48809C44.7982 1.56963 43.2285 0 41.3101 0Z" fill="#2A428C"/>
<path d="M8.68981 6.10352e-06C6.77145 6.10352e-06 5.20172 1.56963 5.20172 3.48809V5.78448H16.8363C15.6012 4.9877 16.3992 3.78077 16.3992 3.78077L16.2713 1.91739C15.3332 0.979303 16.2713 -9.15527e-05 16.2713 -9.15527e-05H8.68981V6.10352e-06Z" fill="#1C2E7A"/>
<path d="M10.6188 2.89228C10.6188 3.51328 10.1153 4.0167 9.49435 4.0167C8.87335 4.0167 8.36993 3.51328 8.36993 2.89228C8.36993 2.27129 8.87335 1.76787 9.49435 1.76787C10.1153 1.76787 10.6188 2.27129 10.6188 2.89228Z" fill="#FF4155"/>
<path d="M13.7275 2.89228C13.7275 3.51328 13.2241 4.0167 12.6031 4.0167C11.9821 4.0167 11.4787 3.51328 11.4787 2.89228C11.4787 2.27129 11.9821 1.76787 12.6031 1.76787C13.2241 1.76787 13.7275 2.27129 13.7275 2.89228Z" fill="#FFDD40"/>
<path d="M16.8364 2.89228C16.8364 3.51328 16.3329 4.0167 15.7119 4.0167C15.0909 4.0167 14.5875 3.51328 14.5875 2.89228C14.5875 2.27129 15.0909 1.76787 15.7119 1.76787C16.3329 1.76787 16.8364 2.27129 16.8364 2.89228Z" fill="#88CE65"/>
<path d="M26.47 2.89229C26.47 2.47804 26.8059 2.1422 27.2201 2.1422H20.5289C20.1146 2.1422 19.7788 2.47794 19.7788 2.89229C19.7788 3.30665 20.1146 3.64239 20.5289 3.64239H27.2201C26.8059 3.64239 26.47 3.30655 26.47 2.89229Z" fill="#3C58A0"/>
<path d="M32.6612 2.89229C32.6612 2.47804 32.3254 2.1422 31.9111 2.1422H27.02C26.6057 2.1422 26.2699 2.47794 26.2699 2.89229C26.2699 3.30665 26.6057 3.64239 27.02 3.64239H31.9111C32.3254 3.64239 32.6612 3.30655 32.6612 2.89229Z" fill="#6289CC"/>
<path d="M40.9762 3.64239H39.9986C39.5843 3.64239 39.2485 3.30665 39.2485 2.89229C39.2485 2.47794 39.5843 2.1422 39.9986 2.1422H40.9762C41.3905 2.1422 41.7263 2.47794 41.7263 2.89229C41.7263 3.30665 41.3904 3.64239 40.9762 3.64239Z" fill="#6289CC"/>
<path d="M37.5771 3.64239H36.5994C36.1851 3.64239 35.8493 3.30665 35.8493 2.89229C35.8493 2.47794 36.1851 2.1422 36.5994 2.1422H37.5771C37.9914 2.1422 38.3272 2.47794 38.3272 2.89229C38.3272 3.30665 37.9914 3.64239 37.5771 3.64239Z" fill="#3C58A0"/>
<path d="M38.3977 12.814H14.5287C14.5496 12.8323 14.569 12.8511 14.5909 12.8692C14.5062 13.2177 14.2521 14.4598 14.5267 15.8793C14.8187 17.3883 15.7891 19.372 18.7469 20.2955L19.8597 26.8388C19.3405 27.2315 16.4168 29.628 18.2453 32.516C18.2177 32.5653 18.1816 32.6347 18.1442 32.7194H40.5755V14.9918C40.5756 13.7891 39.6005 12.814 38.3977 12.814Z" fill="#FF4155"/>
<path d="M20.0193 26.9033L18.8764 20.1819C13.1543 18.4581 14.7566 12.814 14.7566 12.814H11.6023C10.3995 12.814 9.4245 13.789 9.4245 14.9918V32.7194H18.3035C18.3659 32.5901 18.418 32.5128 18.418 32.5128C17.201 29.1822 20.0193 26.9033 20.0193 26.9033Z" fill="#E80054"/>
<path d="M18.2435 32.5128C18.2442 32.5139 18.2447 32.5149 18.2454 32.516C18.0605 32.8457 17.4992 34.0593 18.6724 34.9271V36.276C18.4949 36.4083 18.0257 36.811 17.8923 37.4542C17.7912 37.9416 17.9056 38.4521 18.2321 38.9732C18.2277 38.978 18.2217 38.9849 18.2169 38.9901H38.3979C39.6007 38.9901 40.5757 38.0151 40.5757 36.8123V32.5129H18.2435V32.5128Z" fill="#3C58A0"/>
<path d="M9.42432 32.5128V36.8122C9.42432 38.015 10.3993 38.99 11.6021 38.99H18.4178C17.2909 37.3244 18.8187 36.3519 18.8187 36.3519V34.8518C17.4662 33.9145 18.4178 32.5128 18.4178 32.5128H9.42432Z" fill="#2A428C"/>
<path d="M25 16.0179C24.7566 16.0179 24.5164 16.0321 24.2798 16.0578C24.0119 16.3637 23.3744 17.197 23.3714 18.2107C23.3694 18.8805 23.646 19.4978 24.194 20.0457C25.9352 21.7868 25.5563 24.2518 25.5318 24.3983C25.4729 24.6018 24.6103 27.7712 27.2825 28.7751C29.7926 27.847 31.5822 25.4326 31.5822 22.6C31.5822 18.9648 28.6352 16.0179 25 16.0179Z" fill="#DEEEFF"/>
<path d="M27.4877 28.6942C24.6428 27.7678 25.6745 24.4316 25.6745 24.4316C25.6745 24.4316 26.1621 21.8068 24.2973 19.9421C22.4667 18.1114 24.4241 16.1114 24.4963 16.039C21.0967 16.2965 18.4178 19.1345 18.4178 22.6C18.4178 26.2353 21.3647 29.1821 25 29.1821C25.8805 29.1822 26.72 29.008 27.4877 28.6942Z" fill="#D3DCFB"/>
<path d="M22.9685 20.6945V24.5056C22.9685 25.1876 23.7125 25.6089 24.2974 25.258L27.4732 23.3525C28.0412 23.0117 28.0412 22.1886 27.4732 21.8478L24.2974 19.9423C23.7126 19.5912 22.9685 20.0125 22.9685 20.6945Z" fill="#FF4155"/>
<path d="M12.6406 36.8113C12.2263 36.8113 11.8905 36.4756 11.8905 36.0612V35.146C11.8905 34.7317 12.2263 34.3959 12.6406 34.3959C13.0549 34.3959 13.3907 34.7316 13.3907 35.146V36.0612C13.3907 36.4756 13.0549 36.8113 12.6406 36.8113Z" fill="#FF4155"/>
<path d="M15.4287 36.8113C15.0144 36.8113 14.6786 36.4756 14.6786 36.0612V35.146C14.6786 34.7317 15.0144 34.3959 15.4287 34.3959C15.8429 34.3959 16.1788 34.7316 16.1788 35.146V36.0612C16.1788 36.4756 15.8429 36.8113 15.4287 36.8113Z" fill="#FF4155"/>
<path d="M36.1685 36.352H23.9479C23.5337 36.352 23.1978 36.0162 23.1978 35.6019C23.1978 35.1876 23.5337 34.8518 23.9479 34.8518H36.1684C36.5827 34.8518 36.9185 35.1875 36.9185 35.6019C36.9185 36.0162 36.5827 36.352 36.1685 36.352Z" fill="#DEEEFF"/>
<path d="M23.948 36.352H18.8188C18.4046 36.352 18.0687 36.0162 18.0687 35.6019C18.0687 35.1876 18.4046 34.8518 18.8188 34.8518H23.948C24.3623 34.8518 24.6981 35.1875 24.6981 35.6019C24.6981 36.0162 24.3623 36.352 23.948 36.352Z" fill="#FF4155"/>
<path d="M24.2578 36.8113C23.8435 36.8113 23.5077 36.4756 23.5077 36.0612V35.146C23.5077 34.7317 23.8435 34.3959 24.2578 34.3959C24.672 34.3959 25.0079 34.7316 25.0079 35.146V36.0612C25.0078 36.4756 24.672 36.8113 24.2578 36.8113Z" fill="#FF7186"/>
</g>
<defs>
<linearGradient id="paint0_linear_10_13" x1="1.07404" y1="2.14806" x2="37.322" y2="48.5717" gradientUnits="userSpaceOnUse">
<stop offset="0.229167" stop-color="#5AC8FA"/>
<stop offset="1" stop-color="#4081BF"/>
</linearGradient>
<clipPath id="clip0_10_13">
<rect width="50" height="50" fill="white"/>
</clipPath>
</defs>
</svg>
